<mxfile host="Electron" agent="Mozilla/5.0 (Windows NT 10.0; Win64; x64) AppleWebKit/537.36 (KHTML, like Gecko) draw.io/24.7.5 Chrome/126.0.6478.183 Electron/31.3.0 Safari/537.36" version="24.7.5">
  <diagram name="Página-1" id="30S28V-sfpHmcAIecQgn">
    <mxGraphModel dx="792" dy="1188" grid="1" gridSize="10" guides="1" tooltips="1" connect="1" arrows="1" fold="1" page="1" pageScale="1" pageWidth="827" pageHeight="1169" math="0" shadow="0">
      <root>
        <mxCell id="0" />
        <mxCell id="1" parent="0" />
        <mxCell id="teBmgloNEacWPZcQMbZP-2" value="Usuário" style="shape=umlLifeline;perimeter=lifelinePerimeter;whiteSpace=wrap;html=1;container=0;dropTarget=0;collapsible=0;recursiveResize=0;outlineConnect=0;portConstraint=eastwest;newEdgeStyle={&quot;edgeStyle&quot;:&quot;elbowEdgeStyle&quot;,&quot;elbow&quot;:&quot;vertical&quot;,&quot;curved&quot;:0,&quot;rounded&quot;:0};" parent="1" vertex="1">
          <mxGeometry x="259" y="110" width="100" height="300" as="geometry" />
        </mxCell>
        <mxCell id="teBmgloNEacWPZcQMbZP-3" value="" style="html=1;points=[];perimeter=orthogonalPerimeter;outlineConnect=0;targetShapes=umlLifeline;portConstraint=eastwest;newEdgeStyle={&quot;edgeStyle&quot;:&quot;elbowEdgeStyle&quot;,&quot;elbow&quot;:&quot;vertical&quot;,&quot;curved&quot;:0,&quot;rounded&quot;:0};" parent="teBmgloNEacWPZcQMbZP-2" vertex="1">
          <mxGeometry x="45" y="70" width="10" height="190" as="geometry" />
        </mxCell>
        <mxCell id="teBmgloNEacWPZcQMbZP-4" value="Search.js" style="shape=umlLifeline;perimeter=lifelinePerimeter;whiteSpace=wrap;html=1;container=0;dropTarget=0;collapsible=0;recursiveResize=0;outlineConnect=0;portConstraint=eastwest;newEdgeStyle={&quot;edgeStyle&quot;:&quot;elbowEdgeStyle&quot;,&quot;elbow&quot;:&quot;vertical&quot;,&quot;curved&quot;:0,&quot;rounded&quot;:0};" parent="1" vertex="1">
          <mxGeometry x="449" y="110" width="100" height="300" as="geometry" />
        </mxCell>
        <mxCell id="teBmgloNEacWPZcQMbZP-5" value="" style="html=1;points=[];perimeter=orthogonalPerimeter;outlineConnect=0;targetShapes=umlLifeline;portConstraint=eastwest;newEdgeStyle={&quot;edgeStyle&quot;:&quot;elbowEdgeStyle&quot;,&quot;elbow&quot;:&quot;vertical&quot;,&quot;curved&quot;:0,&quot;rounded&quot;:0};" parent="teBmgloNEacWPZcQMbZP-4" vertex="1">
          <mxGeometry x="45" y="70" width="10" height="190" as="geometry" />
        </mxCell>
        <mxCell id="teBmgloNEacWPZcQMbZP-15" value="Busca por local" style="html=1;verticalAlign=bottom;endArrow=block;edgeStyle=elbowEdgeStyle;elbow=vertical;curved=0;rounded=0;" parent="1" source="teBmgloNEacWPZcQMbZP-3" target="teBmgloNEacWPZcQMbZP-5" edge="1">
          <mxGeometry x="0.0017" relative="1" as="geometry">
            <mxPoint x="319" y="200" as="sourcePoint" />
            <Array as="points">
              <mxPoint x="414" y="200" />
            </Array>
            <mxPoint x="489" y="200" as="targetPoint" />
            <mxPoint as="offset" />
          </mxGeometry>
        </mxCell>
        <mxCell id="teBmgloNEacWPZcQMbZP-16" value="&lt;div style=&quot;color: rgb(234, 242, 241); background-color: rgb(40, 42, 58); font-family: Consolas, &amp;quot;Courier New&amp;quot;, monospace; font-size: 14px; line-height: 19px; white-space-collapse: preserve;&quot;&gt;showPopup&lt;/div&gt;" style="html=1;verticalAlign=bottom;endArrow=block;edgeStyle=elbowEdgeStyle;elbow=vertical;curved=0;rounded=0;" parent="1" edge="1">
          <mxGeometry x="0.2444" relative="1" as="geometry">
            <mxPoint x="449" y="290" as="sourcePoint" />
            <Array as="points">
              <mxPoint x="494" y="290" />
            </Array>
            <mxPoint x="313.99999999999994" y="290" as="targetPoint" />
            <mxPoint as="offset" />
          </mxGeometry>
        </mxCell>
        <mxCell id="_Tzph0EAAF1RlF3fVMPD-2" value="" style="rounded=0;whiteSpace=wrap;html=1;" parent="1" vertex="1">
          <mxGeometry x="499" y="230" width="10" height="60" as="geometry" />
        </mxCell>
        <mxCell id="_Tzph0EAAF1RlF3fVMPD-3" value="Local não existe" style="curved=1;endArrow=classic;html=1;rounded=0;entryX=1.203;entryY=0.429;entryDx=0;entryDy=0;entryPerimeter=0;" parent="1" source="teBmgloNEacWPZcQMbZP-5" target="_Tzph0EAAF1RlF3fVMPD-2" edge="1">
          <mxGeometry width="50" height="50" relative="1" as="geometry">
            <mxPoint x="509" y="200" as="sourcePoint" />
            <mxPoint x="559" y="150" as="targetPoint" />
            <Array as="points">
              <mxPoint x="549" y="200" />
              <mxPoint x="569" y="220" />
              <mxPoint x="569" y="250" />
              <mxPoint x="539" y="260" />
            </Array>
          </mxGeometry>
        </mxCell>
        <mxCell id="_Tzph0EAAF1RlF3fVMPD-4" value="Clica no botao para pesquisa" style="html=1;verticalAlign=bottom;endArrow=block;edgeStyle=elbowEdgeStyle;elbow=vertical;curved=0;rounded=0;" parent="1" edge="1">
          <mxGeometry x="0.0017" relative="1" as="geometry">
            <mxPoint x="309" y="320" as="sourcePoint" />
            <Array as="points">
              <mxPoint x="409" y="320" />
            </Array>
            <mxPoint x="489" y="320" as="targetPoint" />
            <mxPoint as="offset" />
          </mxGeometry>
        </mxCell>
        <mxCell id="_Tzph0EAAF1RlF3fVMPD-5" value="&lt;div style=&quot;color: rgb(234, 242, 241); background-color: rgb(40, 42, 58); font-family: Consolas, &amp;quot;Courier New&amp;quot;, monospace; font-size: 14px; line-height: 19px; white-space-collapse: preserve;&quot;&gt;&lt;span style=&quot;color: #9cd1bb;font-style: italic;&quot;&gt;href&lt;/span&gt;&lt;span style=&quot;color: #ff657a;&quot;&gt;=&lt;/span&gt;&lt;span style=&quot;color: #ff9b5e;&quot;&gt;{&lt;/span&gt;&lt;span style=&quot;color: #ff657a;&quot;&gt;`&lt;/span&gt;&lt;span style=&quot;color: #ffd76d;&quot;&gt;https://www.google.com/search?q=&lt;/span&gt;&lt;span style=&quot;color: #ff657a;&quot;&gt;${&lt;/span&gt;&lt;span style=&quot;color: #bad761;&quot;&gt;encodeURIComponent&lt;/span&gt;&lt;span style=&quot;color: #888d94;&quot;&gt;(&lt;/span&gt;name&lt;span style=&quot;color: #888d94;&quot;&gt;)&lt;/span&gt;&lt;span style=&quot;color: #ff657a;&quot;&gt;}&lt;/span&gt;&lt;span style=&quot;color: #ff657a;&quot;&gt;`&lt;/span&gt;&lt;span style=&quot;color: #ff9b5e;&quot;&gt;}&lt;/span&gt;&lt;/div&gt;" style="html=1;verticalAlign=bottom;endArrow=block;edgeStyle=elbowEdgeStyle;elbow=vertical;curved=0;rounded=0;" parent="1" edge="1">
          <mxGeometry x="0.2444" relative="1" as="geometry">
            <mxPoint x="454" y="350" as="sourcePoint" />
            <Array as="points">
              <mxPoint x="499" y="350" />
            </Array>
            <mxPoint x="318.99999999999994" y="350" as="targetPoint" />
            <mxPoint as="offset" />
          </mxGeometry>
        </mxCell>
      </root>
    </mxGraphModel>
  </diagram>
</mxfile>
